<?xml version="1.0" encoding="utf-8"?>
<!-- Generator: Adobe Illustrator 16.0.0, SVG Export Plug-In . SVG Version: 6.00 Build 0)  -->
<!DOCTYPE svg PUBLIC "-//W3C//DTD SVG 1.1//EN" "http://www.w3.org/Graphics/SVG/1.1/DTD/svg11.dtd">
<svg version="1.1" id="레이어_1" xmlns="http://www.w3.org/2000/svg" xmlns:xlink="http://www.w3.org/1999/xlink" x="0px"
	 y="0px" width="45px" height="50px" viewBox="0 0 45 50" enable-background="new 0 0 45 50" xml:space="preserve">
<g>
	<path fill="#B6D3D6" d="M45,12.5C45,19.403,39.404,25,32.5,25h-20C5.597,25,0,19.403,0,12.5l0,0C0,5.597,5.597,0,12.5,0h20
		C39.404,0,45,5.597,45,12.5L45,12.5z"/>
	<circle fill="#FFFFFF" cx="12.5" cy="12.5" r="9"/>
	<g>
		<path fill="#63B5C1" d="M0,37.5C0,44.402,5.596,50,12.5,50h20C39.402,50,45,44.402,45,37.5l0,0C45,30.598,39.402,25,32.5,25h-20
			C5.596,25,0,30.598,0,37.5L0,37.5z"/>
		<circle fill="#FFFFFF" cx="32.5" cy="37.5" r="9"/>
	</g>
</g>
</svg>
