<?xml version="1.0" encoding="utf-8"?>
<!-- Generator: Adobe Illustrator 16.0.0, SVG Export Plug-In . SVG Version: 6.00 Build 0)  -->
<!DOCTYPE svg PUBLIC "-//W3C//DTD SVG 1.1//EN" "http://www.w3.org/Graphics/SVG/1.1/DTD/svg11.dtd">
<svg version="1.1" id="Layer_1" xmlns="http://www.w3.org/2000/svg" xmlns:xlink="http://www.w3.org/1999/xlink" x="0px" y="0px"
	 width="32px" height="32px" viewBox="0 0 32 32" enable-background="new 0 0 32 32" xml:space="preserve">
<g>
	<path d="M28.962,17.037H3.038C2.464,17.037,2,16.572,2,16s0.464-1.037,1.038-1.037h25.924C29.535,14.963,30,15.428,30,16
		S29.536,17.037,28.962,17.037z"/>
	<path d="M28.962,9.053H3.038C2.464,9.053,2,8.588,2,8.016s0.464-1.037,1.038-1.037h25.924C29.535,6.979,30,7.443,30,8.016
		S29.536,9.053,28.962,9.053z"/>
	<path d="M28.962,25.021H3.038C2.464,25.021,2,24.557,2,23.984s0.464-1.037,1.038-1.037h25.924c0.573,0,1.038,0.465,1.038,1.037
		S29.536,25.021,28.962,25.021z"/>
</g>
</svg>
