<?xml version="1.0" encoding="utf-8"?>
<!-- Generator: Adobe Illustrator 16.0.0, SVG Export Plug-In . SVG Version: 6.00 Build 0)  -->
<!DOCTYPE svg PUBLIC "-//W3C//DTD SVG 1.1//EN" "http://www.w3.org/Graphics/SVG/1.1/DTD/svg11.dtd">
<svg version="1.1" id="레이어_1" xmlns="http://www.w3.org/2000/svg" xmlns:xlink="http://www.w3.org/1999/xlink" x="0px"
	 y="0px" width="30px" height="30px" viewBox="0 0 30 30" enable-background="new 0 0 30 30" xml:space="preserve">
<g>
	<polygon fill="none" stroke="#585858" stroke-width="0.5" stroke-miterlimit="10" points="29.603,9.757 29.603,9.757 0.397,9.757 
		0.397,9.757 0.397,2.629 0.397,2.629 29.603,2.629 29.603,2.629 	"/>
	<g>
		<path fill="#585858" d="M2.645,7.894c-0.052,0-0.078-0.026-0.078-0.078V7.532c0-0.052,0.026-0.078,0.078-0.078h0.313V5.008H2.645
			c-0.052,0-0.078-0.026-0.078-0.078V4.651c0-0.055,0.026-0.083,0.078-0.083h1.113c0.052,0,0.078,0.028,0.078,0.083V4.93
			c0,0.052-0.026,0.078-0.078,0.078H3.446v2.446h0.313c0.052,0,0.078,0.026,0.078,0.078v0.283c0,0.052-0.026,0.078-0.078,0.078
			H2.645z"/>
		<path fill="#585858" d="M6.034,4.573c0.176,0,0.323,0.028,0.442,0.085s0.214,0.126,0.286,0.208
			c0.072,0.084,0.123,0.172,0.154,0.261s0.046,0.165,0.046,0.227v1.758c0,0.127-0.023,0.239-0.071,0.337S6.781,7.63,6.703,7.698
			C6.625,7.763,6.536,7.812,6.437,7.845S6.235,7.894,6.131,7.894H4.618c-0.065,0-0.122-0.021-0.171-0.063S4.374,7.736,4.374,7.674
			V4.793c0-0.062,0.024-0.113,0.073-0.154s0.106-0.063,0.171-0.066H6.034z M6.473,5.354C6.47,5.292,6.45,5.236,6.415,5.184
			C6.385,5.141,6.34,5.102,6.28,5.066S6.138,5.013,6.034,5.013H4.862v2.441h1.27c0.033,0,0.068-0.005,0.107-0.015
			s0.077-0.028,0.112-0.054C6.384,7.36,6.412,7.325,6.437,7.281s0.037-0.1,0.037-0.168V5.354z"/>
	</g>
</g>
<g>
	<polygon fill="none" stroke="#585858" stroke-width="0.5" stroke-miterlimit="10" points="29.603,19.008 29.603,19.008 
		0.397,19.008 0.397,19.008 0.397,11.88 0.397,11.88 29.603,11.88 29.603,11.88 	"/>
	<g>
		<path fill="#585858" d="M4.325,13.823c0.277,0,0.492,0.072,0.647,0.215c0.155,0.144,0.232,0.349,0.232,0.615v0.439
			c0,0.153-0.023,0.282-0.068,0.387c-0.045,0.104-0.107,0.188-0.186,0.254c-0.078,0.068-0.171,0.117-0.278,0.146
			s-0.223,0.043-0.347,0.043H3.104v1.143c0,0.053-0.026,0.078-0.078,0.078H2.694c-0.052,0-0.078-0.025-0.078-0.078v-2.416
			c0-0.268,0.081-0.472,0.242-0.613s0.414-0.213,0.759-0.213H4.325z M4.715,14.653c0-0.14-0.041-0.24-0.122-0.3
			s-0.171-0.091-0.269-0.091H3.617c-0.156,0-0.281,0.031-0.374,0.094c-0.093,0.062-0.139,0.159-0.139,0.293v0.834h1.221
			c0.26,0,0.391-0.13,0.391-0.391V14.653z"/>
		<path fill="#585858" d="M9.393,16.265c0,0.271-0.077,0.484-0.232,0.643s-0.37,0.236-0.647,0.236H8.221
			c-0.137,0-0.265-0.023-0.383-0.07s-0.219-0.105-0.3-0.174c-0.075,0.075-0.165,0.135-0.269,0.179s-0.226,0.065-0.366,0.065H6.561
			c-0.277,0-0.492-0.078-0.647-0.236s-0.232-0.372-0.232-0.643v-2.363c0-0.052,0.026-0.078,0.078-0.078h0.332
			c0.052,0,0.078,0.026,0.078,0.078v2.363c0,0.068,0.011,0.13,0.034,0.184s0.054,0.099,0.093,0.135
			c0.036,0.039,0.077,0.068,0.125,0.09s0.094,0.031,0.139,0.031h0.342c0.045,0,0.092-0.01,0.139-0.031s0.09-0.051,0.129-0.09
			c0.036-0.036,0.065-0.081,0.088-0.135s0.034-0.115,0.034-0.184v-2.217c0-0.052,0.026-0.078,0.078-0.078h0.332
			c0.052,0,0.078,0.026,0.078,0.078v2.217c0,0.068,0.014,0.13,0.042,0.184s0.064,0.099,0.11,0.135
			c0.042,0.039,0.089,0.068,0.139,0.09s0.1,0.031,0.149,0.031h0.293c0.045,0,0.092-0.01,0.139-0.031s0.09-0.051,0.129-0.09
			c0.036-0.036,0.065-0.081,0.088-0.135s0.034-0.115,0.034-0.184v-2.363c0-0.052,0.026-0.078,0.078-0.078h0.332
			c0.052,0,0.078,0.026,0.078,0.078V16.265z"/>
	</g>
</g>
<g>
	<circle fill="#283140" cx="19.722" cy="10.278" r="9.911"/>
	<circle fill="#F7F8FD" cx="19.721" cy="10.278" r="8.078"/>
	
		<rect x="10.879" y="16.227" transform="matrix(0.7071 0.7071 -0.7071 0.7071 16.2884 -3.102)" fill="#283140" width="2.019" height="3.767"/>
	<path fill="#237D82" d="M3.724,29.313l-3.039-3.037c-0.424-0.426-0.424-1.112,0-1.537L7.5,17.924c0.424-0.425,1.113-0.425,1.537,0
		l3.039,3.038c0.424,0.426,0.424,1.114,0,1.537l-6.814,6.814C4.836,29.739,4.148,29.739,3.724,29.313z"/>
	<g>
		
			<rect x="5.058" y="20.22" transform="matrix(0.7072 0.707 -0.707 0.7072 17.7754 0.492)" fill="#6ACEC9" width="6.471" height="2.973"/>
	</g>
	<g>
		<path fill="#E5E8F1" d="M23.209,4.06c-2.717-1.524-6.219-1.133-8.529,1.177c-2.774,2.775-2.783,7.267-0.028,10.055
			C15.436,7.253,20.231,4.803,23.209,4.06z"/>
	</g>
</g>
</svg>
