<?xml version="1.0" ?><svg style="enable-background:new 0 0 48 48;" version="1.1" viewBox="0 0 48 48" xml:space="preserve" xmlns="http://www.w3.org/2000/svg" xmlns:xlink="http://www.w3.org/1999/xlink"><g id="Icons"><g><path d="M11.30485,18.45805v13.7078c0,1.2449,1.0092,2.2541,2.2541,2.2541h20.8821    c1.2448,0,2.2541-1.0092,2.2541-2.2541v-13.7078l-12.3326-1.7474L11.30485,18.45805z" style="fill:#F4F4F4;"/><path d="M34.14635,13.58005h-20.2931c-1.4075,0-2.5484,1.141-2.5484,2.5485v2.3295h25.39v-2.3295    C36.69485,14.72105,35.55385,13.58005,34.14635,13.58005z" style="fill:#F43734;"/><path d="M28.76495,25.68905h-4.015v-4.02c0-0.41-0.33-0.75-0.75-0.75c-0.41,0-0.75,0.34-0.75,0.75v4.02    h-0.005h-4.01c-0.42,0-0.75,0.3399-0.75,0.75c0,0.4099,0.33,0.75,0.75,0.75h4.01h0.005v4.0199c0,0.4101,0.34,0.75,0.75,0.75    c0.42,0,0.75-0.3399,0.75-0.75v-4.0199h4.015c0.41,0,0.75-0.3401,0.75-0.75    C29.51495,26.02895,29.17495,25.68905,28.76495,25.68905z" style="fill:#DBDBDB;"/></g></g></svg>