<?xml version="1.0" encoding="utf-8"?>
<!-- Generator: Adobe Illustrator 16.0.0, SVG Export Plug-In . SVG Version: 6.00 Build 0)  -->
<!DOCTYPE svg PUBLIC "-//W3C//DTD SVG 1.1//EN" "http://www.w3.org/Graphics/SVG/1.1/DTD/svg11.dtd">
<svg version="1.1" id="Слой_1" xmlns="http://www.w3.org/2000/svg" xmlns:xlink="http://www.w3.org/1999/xlink" x="0px" y="0px"
	 width="50.667px" height="50.333px" viewBox="108.833 80.5 50.667 50.333" enable-background="new 108.833 80.5 50.667 50.333"
	 xml:space="preserve">
<g id="поиск">
	<g>
		<g>
			<path fill="#636363" d="M128.639,90.735c5.48,0,9.987,4.507,9.987,9.987s-4.507,9.987-9.987,9.987s-9.987-4.42-9.987-9.987
				C118.652,95.154,123.071,90.735,128.639,90.735 M128.639,88.083c-6.983,0-12.639,5.656-12.639,12.639s5.656,12.64,12.639,12.64
				c6.982,0,12.639-5.657,12.639-12.64S135.532,88.083,128.639,88.083L128.639,88.083z"/>
		</g>
	</g>
	
		<line fill="none" stroke="#636363" stroke-width="2" stroke-miterlimit="10" x1="136.858" y1="108.853" x2="139.775" y2="111.771"/>
	
		<line fill="none" stroke="#636363" stroke-width="4" stroke-linecap="round" stroke-miterlimit="10" x1="151" y1="123.083" x2="140.57" y2="112.653"/>
</g>
<g id="активы" display="none">
	<path display="inline" fill="none" stroke="#000000" stroke-width="3" stroke-linecap="round" stroke-miterlimit="10" d="
		M215.2,55.6H44.8c-1.2,0-2-0.8-2-2V26.4c0-2.4,1.6-4,4-4h166.8c2.4,0,4,1.6,4,4v27.2C217.2,54.8,216.4,55.6,215.2,55.6z"/>
	<path display="inline" fill="none" stroke="#000000" stroke-width="3" stroke-linecap="round" stroke-miterlimit="10" d="
		M200,177.6H60c-2.4,0-4-1.6-4-4v-118h148.4v118C204,175.6,202.4,177.6,200,177.6z"/>
	<path display="inline" fill="none" stroke="#000000" stroke-width="3" stroke-linecap="round" stroke-miterlimit="10" d="
		M159.2,106h-56.4c-6.4,0-11.6-5.2-11.6-11.6l0,0c0-6.4,5.2-11.6,11.6-11.6h56.4c6.399,0,11.6,5.2,11.6,11.6l0,0
		C170.8,100.4,165.6,106,159.2,106z"/>
</g>
<g id="заявки" display="none">
	<path display="inline" fill="none" stroke="#000000" stroke-width="3" stroke-linecap="round" stroke-miterlimit="10" d="
		M76.4,165.2h-12c-2.4,0-4-1.601-4-4v-128c0-2.4,1.6-4,4-4h12V165.2z"/>
	<path display="inline" fill="none" stroke="#000000" stroke-width="3" stroke-linecap="round" stroke-miterlimit="10" d="
		M158.8,24.4H80.4c-2.4,0-4,1.6-4,4v143.2c0,2.4,1.6,4,4,4H196c2.4,0,4-1.6,4-4V60c0-1.2-0.4-2.4-1.6-3.2L161.6,25.6
		C160.8,24.8,159.6,24.4,158.8,24.4z"/>
	
		<line display="inline" fill="none" stroke="#000000" stroke-width="3" stroke-linecap="round" stroke-miterlimit="10" x1="158.8" y1="24.4" x2="158.8" y2="59.6"/>
	
		<line display="inline" fill="none" stroke="#000000" stroke-width="3" stroke-linecap="round" stroke-miterlimit="10" x1="199.6" y1="60" x2="158.8" y2="60"/>
	<g display="inline">
		
			<line fill="none" stroke="#000000" stroke-width="3" stroke-linecap="round" stroke-miterlimit="10" x1="106" y1="83.6" x2="174" y2="83.6"/>
		
			<line fill="none" stroke="#000000" stroke-width="3" stroke-linecap="round" stroke-miterlimit="10" x1="106" y1="104" x2="163.2" y2="104"/>
		
			<line fill="none" stroke="#000000" stroke-width="3" stroke-linecap="round" stroke-miterlimit="10" x1="106" y1="123.6" x2="174" y2="123.6"/>
		
			<line fill="none" stroke="#000000" stroke-width="3" stroke-linecap="round" stroke-miterlimit="10" x1="106" y1="142.4" x2="163.2" y2="142.4"/>
	</g>
</g>
<g id="регистрация" display="none">
	<path display="inline" fill="none" stroke="#000000" stroke-width="3" stroke-linecap="round" stroke-miterlimit="10" d="
		M184,130.4v42.8c0,2.399-1.6,4-3.6,4H67.2c-2,0-3.6-1.601-3.6-4V26.4c0-2.4,1.6-4,3.6-4h113.2c2,0,3.6,1.6,3.6,4v42"/>
	<path display="inline" stroke="#000000" stroke-width="3" stroke-linecap="round" stroke-miterlimit="10" d="M144,120V80
		c0-0.8-1.2-1.6-2-0.8l-26.4,20c-0.8,0.4-0.8,1.6,0,2l26.4,20C143.2,121.6,144,120.8,144,120z"/>
	
		<line display="inline" fill="none" stroke="#000000" stroke-width="3" stroke-linecap="round" stroke-miterlimit="10" x1="144" y1="100" x2="212.4" y2="100"/>
</g>
<g id="оповещение" display="none">
	<path display="inline" fill="none" stroke="#000000" stroke-width="3" stroke-linecap="round" stroke-miterlimit="10" d="
		M69.6,64.4h125.2V46c0-2.4-1.6-4-4-4H47.6c-2.4,0-4,1.6-4,4v92.8c0,2.4,1.6,4,4,4H66V68.4C65.6,66,67.6,64.4,69.6,64.4z"/>
	<path display="inline" fill="none" stroke="#000000" stroke-width="3" stroke-linecap="round" stroke-miterlimit="10" d="
		M214,171.2H69.6c-2.4,0-4-1.601-4-4V68.4c0-2.4,1.6-4,4-4H214c2.4,0,4,1.6,4,4v98.8C218,169.6,216.4,171.2,214,171.2z"/>
	<path display="inline" fill="none" stroke="#000000" stroke-width="3" stroke-linecap="round" stroke-miterlimit="10" d="
		M214,171.2H69.6c-2.4,0-4-1.601-4-4V68.4c0-2.4,1.6-4,4-4l61.2,58.4c6,6,16,6,22,0L214,64.4c2.4,0,4,1.6,4,4v98.8
		C218,169.6,216.4,171.2,214,171.2z"/>
	
		<line display="inline" fill="none" stroke="#000000" stroke-width="3" stroke-linecap="round" stroke-miterlimit="10" x1="119.2" y1="111.6" x2="65.6" y2="154.4"/>
	
		<line display="inline" fill="none" stroke="#000000" stroke-width="3" stroke-linecap="round" stroke-miterlimit="10" x1="164.4" y1="112.4" x2="218" y2="155.6"/>
</g>
<g id="синхронизация" display="none">
	<path display="inline" stroke="#000000" stroke-width="3" stroke-linecap="round" stroke-miterlimit="10" d="M153.2,146.4
		l23.2,32.399c0.399,0.8,2,0.8,2-0.399l10-31.601c0.399-0.8-0.4-1.6-1.2-1.6l-33.2-0.8C153.2,144.4,152.8,145.6,153.2,146.4z"/>
	<path display="inline" stroke="#000000" stroke-width="3" stroke-linecap="round" stroke-miterlimit="10" d="M104.8,50.4L81.6,18
		c-0.4-0.8-2-0.8-2,0.4L69.6,50c-0.4,0.8,0.4,1.6,1.2,1.6l33.2,0.8C104.8,52.4,105.6,51.2,104.8,50.4z"/>
	<path display="inline" fill="none" stroke="#000000" stroke-width="3" stroke-linecap="round" stroke-miterlimit="10" d="
		M187.6,146c-14,17.2-34.8,28-58.399,28C87.6,174,54,140.4,54,98.8c0-6,0.8-11.6,2-17.2"/>
	<path display="inline" fill="none" stroke="#000000" stroke-width="3" stroke-linecap="round" stroke-miterlimit="10" d="
		M70.4,50.4c14-17.2,34.8-28,58.4-28C170.4,22.4,204,56,204,97.6c0,6-0.8,11.6-2,17.2"/>
</g>
<path id="взаимодействие" display="none" fill="none" stroke="#000000" stroke-width="3" stroke-linecap="round" stroke-miterlimit="10" d="
	M130.4,21.2c-46,0-83.6,32.4-83.6,72.8c0,23.2,12.4,44,32,57.2L60,180c-0.8,0.8,0.4,2,1.2,1.6c18.8-2.399,35.6-8,50-17.199
	c6,1.199,12.4,2,19.2,2c46,0,83.6-32.4,83.6-72.8S176.8,21.2,130.4,21.2z"/>
<g id="SLA" display="none">
	<path display="inline" fill="none" stroke="#000000" stroke-width="3" stroke-linecap="round" stroke-miterlimit="10" d="
		M203.6,177.6H56.4c-2.4,0-4-1.6-4-4V26.4c0-2.4,1.6-4,4-4h147.2c2.4,0,4,1.6,4,4v147.2C207.6,175.6,205.6,177.6,203.6,177.6z"/>
	<g display="inline">
		<g>
			
				<line fill="none" stroke="#000000" stroke-width="3" stroke-linecap="round" stroke-miterlimit="10" x1="77.6" y1="144.8" x2="127.6" y2="144.8"/>
			
				<line display="none" fill="none" stroke="#000000" stroke-width="3" stroke-linecap="round" stroke-miterlimit="10" x1="152.8" y1="139.2" x2="162.8" y2="150"/>
			
				<line display="none" fill="none" stroke="#000000" stroke-width="3" stroke-linecap="round" stroke-miterlimit="10" x1="182.4" y1="130" x2="162.8" y2="150"/>
		</g>
		<g>
			
				<line fill="none" stroke="#000000" stroke-width="3" stroke-linecap="round" stroke-miterlimit="10" x1="77.6" y1="104.8" x2="127.6" y2="104.8"/>
			
				<line fill="none" stroke="#000000" stroke-width="3" stroke-linecap="round" stroke-miterlimit="10" x1="152.8" y1="99.2" x2="162.8" y2="110"/>
			
				<line fill="none" stroke="#000000" stroke-width="3" stroke-linecap="round" stroke-miterlimit="10" x1="182.4" y1="90" x2="162.8" y2="110"/>
		</g>
		<g>
			
				<line fill="none" stroke="#000000" stroke-width="3" stroke-linecap="round" stroke-miterlimit="10" x1="77.6" y1="64.8" x2="127.6" y2="64.8"/>
			
				<line fill="none" stroke="#000000" stroke-width="3" stroke-linecap="round" stroke-miterlimit="10" x1="152.8" y1="59.2" x2="162.8" y2="70"/>
			
				<line fill="none" stroke="#000000" stroke-width="3" stroke-linecap="round" stroke-miterlimit="10" x1="182.4" y1="50" x2="162.8" y2="70"/>
		</g>
	</g>
</g>
<g id="отчет" display="none">
	<path display="inline" fill="none" stroke="#000000" stroke-width="3" stroke-linecap="round" stroke-miterlimit="10" d="
		M206.8,37.2h-154c-2.4,0-4-1.6-4-4V19.6c0-2.4,1.6-4,4-4h154c2.4,0,4,1.6,4,4v13.6C210.8,35.6,208.8,37.2,206.8,37.2z"/>
	<path display="inline" fill="none" stroke="#000000" stroke-width="3" stroke-linecap="round" stroke-miterlimit="10" d="
		M198.8,153.6h-138c-2.4,0-4-1.6-4-4V37.2h146V149.6C202.8,152,200.8,153.6,198.8,153.6z"/>
	
		<line display="inline" fill="none" stroke="#000000" stroke-width="3" stroke-linecap="round" stroke-miterlimit="10" x1="130" y1="171.2" x2="130" y2="153.6"/>
	
		<circle display="inline" fill="none" stroke="#000000" stroke-width="3" stroke-linecap="round" stroke-miterlimit="10" cx="130" cy="182.4" r="8.8"/>
	<g display="inline">
		
			<line fill="none" stroke="#000000" stroke-width="3" stroke-linecap="round" stroke-miterlimit="10" x1="142" y1="75.2" x2="184.8" y2="75.2"/>
		
			<line fill="none" stroke="#000000" stroke-width="3" stroke-linecap="round" stroke-miterlimit="10" x1="142" y1="95.6" x2="184.8" y2="95.6"/>
		
			<line fill="none" stroke="#000000" stroke-width="3" stroke-linecap="round" stroke-miterlimit="10" x1="142" y1="116" x2="184.8" y2="116"/>
		<path fill="none" stroke="#000000" stroke-width="3" stroke-linecap="round" stroke-miterlimit="10" d="M101.2,93.6l-2.4-20.8
			c0-0.8-0.4-1.2-1.2-1.2c-14,0.8-24.8,14-21.6,28.4c2,8.8,9.2,16,18,18c14.8,3.2,27.6-7.6,28.4-21.2c0-0.8-0.4-1.2-1.2-1.2
			L101.2,93.6z"/>
	</g>
</g>
</svg>
